<svg width="16" height="16" viewBox="0 0 16 16" fill="none" xmlns="http://www.w3.org/2000/svg">
<g id="Icon/arrow-circle-up">
<path id="Icon" fill-rule="evenodd" clip-rule="evenodd" d="M8.0001 14.3996C11.5347 14.3996 14.4001 11.5342 14.4001 7.99961C14.4001 4.46499 11.5347 1.59961 8.0001 1.59961C4.46548 1.59961 1.6001 4.46499 1.6001 7.99961C1.6001 11.5342 4.46548 14.3996 8.0001 14.3996ZM10.9658 7.43392L8.56578 5.03392C8.25336 4.7215 7.74683 4.7215 7.43441 5.03392L5.03441 7.43392C4.72199 7.74634 4.72199 8.25288 5.03441 8.56529C5.34683 8.87771 5.85336 8.87771 6.16578 8.56529L7.2001 7.53098L7.2001 10.3996C7.2001 10.8414 7.55827 11.1996 8.0001 11.1996C8.44192 11.1996 8.8001 10.8414 8.8001 10.3996V7.53098L9.83441 8.56529C10.1468 8.87771 10.6534 8.87771 10.9658 8.56529C11.2782 8.25287 11.2782 7.74634 10.9658 7.43392Z" fill="#9E9E9E"/>
</g>
</svg>
