<svg width="12" height="12" viewBox="0 0 12 12" fill="none" xmlns="http://www.w3.org/2000/svg">
<path d="M5.40039 1.19995C5.06902 1.19995 4.80039 1.46858 4.80039 1.79995C4.80039 2.13132 5.06902 2.39995 5.40039 2.39995H6.60039C6.93176 2.39995 7.20039 2.13132 7.20039 1.79995C7.20039 1.46858 6.93176 1.19995 6.60039 1.19995H5.40039Z" fill="black"/>
<path fill-rule="evenodd" clip-rule="evenodd" d="M2.40039 2.99995C2.40039 2.33721 2.93765 1.79995 3.60039 1.79995C3.60039 2.79406 4.40628 3.59995 5.40039 3.59995H6.60039C7.5945 3.59995 8.40039 2.79406 8.40039 1.79995C9.06313 1.79995 9.60039 2.33721 9.60039 2.99995V9.59995C9.60039 10.2627 9.06313 10.8 8.40039 10.8H3.60039C2.93765 10.8 2.40039 10.2627 2.40039 9.59995V2.99995ZM4.20039 5.39995C3.86902 5.39995 3.60039 5.66858 3.60039 5.99995C3.60039 6.33132 3.86902 6.59995 4.20039 6.59995H4.20639C4.53776 6.59995 4.80639 6.33132 4.80639 5.99995C4.80639 5.66858 4.53776 5.39995 4.20639 5.39995H4.20039ZM6.00039 5.39995C5.66902 5.39995 5.40039 5.66858 5.40039 5.99995C5.40039 6.33132 5.66902 6.59995 6.00039 6.59995H7.80039C8.13176 6.59995 8.40039 6.33132 8.40039 5.99995C8.40039 5.66858 8.13176 5.39995 7.80039 5.39995H6.00039ZM4.20039 7.79995C3.86902 7.79995 3.60039 8.06858 3.60039 8.39995C3.60039 8.73132 3.86902 8.99995 4.20039 8.99995H4.20639C4.53776 8.99995 4.80639 8.73132 4.80639 8.39995C4.80639 8.06858 4.53776 7.79995 4.20639 7.79995H4.20039ZM6.00039 7.79995C5.66902 7.79995 5.40039 8.06858 5.40039 8.39995C5.40039 8.73132 5.66902 8.99995 6.00039 8.99995H7.80039C8.13176 8.99995 8.40039 8.73132 8.40039 8.39995C8.40039 8.06858 8.13176 7.79995 7.80039 7.79995H6.00039Z" fill="black"/>
</svg>
