<svg width="16" height="16" viewBox="0 0 16 16" fill="none" xmlns="http://www.w3.org/2000/svg">
<g id="Icon/clock">
<path id="Icon" fill-rule="evenodd" clip-rule="evenodd" d="M8.0001 14.3996C11.5347 14.3996 14.4001 11.5342 14.4001 7.99961C14.4001 4.46499 11.5347 1.59961 8.0001 1.59961C4.46548 1.59961 1.6001 4.46499 1.6001 7.99961C1.6001 11.5342 4.46548 14.3996 8.0001 14.3996ZM9.0001 4.79961C9.0001 4.24732 8.55238 3.79961 8.0001 3.79961C7.44781 3.79961 7.0001 4.24732 7.0001 4.79961V7.99961C7.0001 8.26483 7.10545 8.51918 7.29299 8.70672L9.55573 10.9695C9.94626 11.36 10.5794 11.36 10.9699 10.9695C11.3605 10.5789 11.3605 9.94577 10.9699 9.55524L9.0001 7.5854V4.79961Z" fill="#9E9E9E"/>
</g>
</svg>
