<svg width="16" height="16" viewBox="0 0 16 16" fill="none" xmlns="http://www.w3.org/2000/svg">
<g id="Icon/fire">
<path id="Icon" fill-rule="evenodd" clip-rule="evenodd" d="M9.40531 1.62641C9.62709 1.68531 9.8129 1.8366 9.91552 2.04184C10.3024 2.81554 10.5911 3.28512 10.8816 3.66585C11.1756 4.05123 11.4866 4.36672 11.9597 4.83983C13.053 5.93315 13.5999 7.36771 13.5999 8.79964C13.5999 10.2316 13.053 11.6661 11.9597 12.7594C9.77277 14.9464 6.22704 14.9464 4.0401 12.7594C2.94679 11.6661 2.3999 10.2316 2.3999 8.79964C2.3999 7.36771 2.94679 5.93315 4.0401 4.83983C4.2689 4.61103 4.613 4.54259 4.91194 4.66641C5.21088 4.79024 5.40579 5.08195 5.40579 5.40552C5.40579 6.30137 5.46173 6.98398 5.72375 7.52844C5.86783 7.82783 6.09258 8.12053 6.47994 8.38172C6.57245 7.53311 6.74192 6.49919 6.9709 5.51783C7.15119 4.74517 7.37542 3.97379 7.6423 3.33054C7.77579 3.0088 7.92674 2.70244 8.09818 2.43793C8.26506 2.18047 8.47947 1.91847 8.75622 1.73397C8.94714 1.60669 9.18353 1.56752 9.40531 1.62641ZM9.69696 12.0967C8.7597 13.0339 7.2401 13.0339 6.30285 12.0967C5.83422 11.628 5.5999 11.0138 5.5999 10.3996C5.5999 10.3996 6.30285 10.7996 7.59994 10.7996C7.59994 9.99961 7.99994 7.59961 8.59994 7.19961C8.99994 7.99961 9.22833 8.23393 9.69696 8.70256C10.1656 9.17119 10.3999 9.7854 10.3999 10.3996C10.3999 11.0138 10.1656 11.628 9.69696 12.0967Z" fill="#9E9E9E"/>
</g>
</svg>
