<svg width="20" height="26" viewBox="0 0 20 26" fill="none" xmlns="http://www.w3.org/2000/svg">
<path d="M12.8933 21.8283C12.0384 22.1706 11.1013 22.2519 10.2002 22.0622C9.29908 21.8724 8.47435 21.4201 7.83003 20.7621C7.18572 20.1042 6.75068 19.2702 6.57979 18.3653C6.40891 17.4605 6.50983 16.5253 6.86983 15.6777L9.92533 18.7332L12.3987 16.2587L9.34433 13.2032C10.2059 12.8357 11.1583 12.7368 12.077 12.9194C12.9957 13.102 13.8379 13.5577 14.4934 14.2268C15.1489 14.8959 15.5872 15.7473 15.7509 16.6695C15.9146 17.5918 15.7961 18.542 15.411 19.3958L17.6662 21.651C18.7532 20.0909 19.3351 18.2348 19.3333 16.3333C19.3166 13.3384 18.6263 10.3855 17.3136 7.69348C16.0009 5.00144 14.0994 2.6392 11.75 0.781677C12.2484 2.60973 12.538 4.48839 12.6133 6.38168C12.6548 6.93242 12.5831 7.48581 12.4027 8.00781C12.2223 8.52981 11.937 9.00937 11.5643 9.417C11.1917 9.82463 10.7395 10.1517 10.2358 10.3781C9.732 10.6044 9.18723 10.7254 8.635 10.7333C8.06935 10.732 7.50968 10.6176 6.98885 10.3969C6.46801 10.1763 5.9965 9.85383 5.602 9.44846C5.2075 9.04309 4.89795 8.563 4.69154 8.03636C4.48513 7.50972 4.38601 6.94715 4.4 6.38168L4.435 5.96168C1.99348 8.86541 0.658543 12.5396 0.666663 16.3333C0.666972 18.0216 1.12521 19.6782 1.99256 21.1266C2.85992 22.5751 4.10391 23.7611 5.59204 24.5585C7.08018 25.3558 8.75672 25.7346 10.4431 25.6544C12.1295 25.5743 13.7625 25.0382 15.1683 24.1033L12.8933 21.8283Z" fill="#2F27CE"/>
</svg>
