<svg width="201" height="56" viewBox="0 0 201 56" fill="none" xmlns="http://www.w3.org/2000/svg">
<path d="M24.8933 35.8284C24.0384 36.1706 23.1013 36.252 22.2002 36.0622C21.2991 35.8725 20.4743 35.4201 19.83 34.7622C19.1857 34.1043 18.7507 33.2703 18.5798 32.3654C18.4089 31.4605 18.5098 30.5253 18.8698 29.6777L21.9253 32.7332L24.3987 30.2587L21.3443 27.2032C22.2059 26.8357 23.1583 26.7368 24.077 26.9195C24.9957 27.1021 25.8379 27.5578 26.4934 28.2269C27.1489 28.896 27.5872 29.7473 27.7509 30.6696C27.9146 31.5919 27.7961 32.5421 27.411 33.3959L29.6662 35.6511C30.7532 34.091 31.3351 32.2348 31.3333 30.3334C31.3166 27.3384 30.6263 24.3856 29.3136 21.6935C28.0009 19.0015 26.0994 16.6393 23.75 14.7817C24.2484 16.6098 24.538 18.4884 24.6133 20.3817C24.6548 20.9325 24.5831 21.4859 24.4027 22.0079C24.2223 22.5299 23.937 23.0094 23.5643 23.4171C23.1917 23.8247 22.7395 24.1517 22.2358 24.3781C21.732 24.6045 21.1872 24.7254 20.635 24.7334C20.0694 24.732 19.5097 24.6177 18.9888 24.397C18.468 24.1764 17.9965 23.8539 17.602 23.4485C17.2075 23.0432 16.898 22.5631 16.6915 22.0364C16.4851 21.5098 16.386 20.9472 16.4 20.3817L16.435 19.9617C13.9935 22.8655 12.6585 26.5397 12.6667 30.3334C12.667 32.0217 13.1252 33.6783 13.9926 35.1267C14.8599 36.5752 16.1039 37.7612 17.592 38.5585C19.0802 39.3559 20.7567 39.7347 22.4431 39.6545C24.1295 39.5744 25.7625 39.0383 27.1683 38.1034L24.8933 35.8284Z" fill="white"/>
<path d="M42.4134 16.088H56.9414V20.184H46.7334V25.752H55.9174V29.848H46.7334V39H42.4134V16.088ZM61.7686 21.048C61.406 21.048 61.054 20.984 60.7126 20.856C60.3926 20.7067 60.1046 20.5147 59.8486 20.28C59.614 20.024 59.422 19.736 59.2726 19.416C59.1446 19.096 59.0806 18.744 59.0806 18.36C59.0806 17.976 59.1446 17.624 59.2726 17.304C59.422 16.984 59.614 16.7067 59.8486 16.472C60.1046 16.216 60.3926 16.024 60.7126 15.896C61.054 15.7467 61.406 15.672 61.7686 15.672C62.5153 15.672 63.1553 15.9387 63.6886 16.472C64.222 16.984 64.4886 17.6133 64.4886 18.36C64.4886 19.1067 64.222 19.7467 63.6886 20.28C63.1553 20.792 62.5153 21.048 61.7686 21.048ZM59.6886 39V23.32H63.8806V39H59.6886ZM71.6179 31.032L66.2419 23.32H71.2019L74.0499 27.672H74.2739L76.9619 23.32H82.0819L76.5779 31.032L82.0819 39H77.1539L74.2099 34.52H73.9859L71.1379 39H66.1779L71.6179 31.032ZM107.788 16.088H115.532C117.346 16.088 118.978 16.3653 120.428 16.92C121.879 17.4747 123.116 18.264 124.14 19.288C125.164 20.2907 125.943 21.496 126.476 22.904C127.031 24.312 127.308 25.8587 127.308 27.544C127.308 29.2507 127.031 30.808 126.476 32.216C125.943 33.624 125.164 34.8293 124.14 35.832C123.116 36.8347 121.879 37.6133 120.428 38.168C118.978 38.7227 117.346 39 115.532 39H107.788V16.088ZM115.34 34.904C116.599 34.904 117.708 34.7333 118.668 34.392C119.628 34.0293 120.428 33.528 121.068 32.888C121.708 32.248 122.188 31.48 122.508 30.584C122.828 29.6667 122.988 28.6533 122.988 27.544C122.988 26.4347 122.828 25.432 122.508 24.536C122.188 23.6187 121.708 22.84 121.068 22.2C120.428 21.56 119.628 21.0693 118.668 20.728C117.708 20.3653 116.599 20.184 115.34 20.184H112.108V34.904H115.34ZM129.651 23.32H133.587V25.496H133.843C134.035 25.112 134.291 24.76 134.611 24.44C134.931 24.12 135.283 23.8427 135.667 23.608C136.073 23.3733 136.499 23.192 136.947 23.064C137.417 22.936 137.875 22.872 138.323 22.872C138.878 22.872 139.347 22.9253 139.731 23.032C140.137 23.1387 140.478 23.2773 140.755 23.448L139.635 27.256C139.379 27.128 139.091 27.032 138.771 26.968C138.473 26.8827 138.099 26.84 137.651 26.84C137.075 26.84 136.553 26.9573 136.083 27.192C135.614 27.4053 135.209 27.7147 134.867 28.12C134.547 28.5253 134.291 29.0053 134.099 29.56C133.929 30.0933 133.843 30.68 133.843 31.32V39H129.651V23.32ZM145.019 21.048C144.656 21.048 144.304 20.984 143.963 20.856C143.643 20.7067 143.355 20.5147 143.099 20.28C142.864 20.024 142.672 19.736 142.523 19.416C142.395 19.096 142.331 18.744 142.331 18.36C142.331 17.976 142.395 17.624 142.523 17.304C142.672 16.984 142.864 16.7067 143.099 16.472C143.355 16.216 143.643 16.024 143.963 15.896C144.304 15.7467 144.656 15.672 145.019 15.672C145.765 15.672 146.405 15.9387 146.939 16.472C147.472 16.984 147.739 17.6133 147.739 18.36C147.739 19.1067 147.472 19.7467 146.939 20.28C146.405 20.792 145.765 21.048 145.019 21.048ZM142.939 39V23.32H147.131V39H142.939ZM149.3 23.32H154.068L157.972 33.304H158.196L162.132 23.32H166.868L160.116 39H155.988L149.3 23.32ZM183.156 35.224C182.43 36.504 181.449 37.5387 180.212 38.328C178.996 39.1173 177.502 39.512 175.732 39.512C174.537 39.512 173.428 39.3093 172.404 38.904C171.401 38.4773 170.526 37.8907 169.78 37.144C169.033 36.3973 168.446 35.5227 168.02 34.52C167.614 33.496 167.412 32.376 167.412 31.16C167.412 30.0293 167.614 28.9627 168.02 27.96C168.425 26.936 168.99 26.0507 169.716 25.304C170.441 24.536 171.294 23.928 172.276 23.48C173.278 23.032 174.377 22.808 175.572 22.808C176.83 22.808 177.95 23.0213 178.932 23.448C179.913 23.8533 180.734 24.4293 181.396 25.176C182.057 25.9013 182.558 26.7653 182.9 27.768C183.241 28.7707 183.412 29.8587 183.412 31.032C183.412 31.1813 183.412 31.3093 183.412 31.416C183.39 31.544 183.38 31.6613 183.38 31.768C183.358 31.8747 183.348 31.992 183.348 32.12H171.54C171.625 32.76 171.796 33.3147 172.052 33.784C172.329 34.232 172.66 34.616 173.044 34.936C173.449 35.2347 173.886 35.4587 174.356 35.608C174.825 35.736 175.305 35.8 175.796 35.8C176.756 35.8 177.545 35.5867 178.164 35.16C178.804 34.712 179.305 34.1573 179.668 33.496L183.156 35.224ZM179.348 29.144C179.326 28.8667 179.23 28.5573 179.06 28.216C178.91 27.8747 178.676 27.5547 178.356 27.256C178.057 26.9573 177.673 26.712 177.204 26.52C176.756 26.328 176.212 26.232 175.572 26.232C174.676 26.232 173.886 26.488 173.204 27C172.521 27.512 172.041 28.2267 171.764 29.144H179.348ZM188.617 39.192C187.849 39.192 187.188 38.9253 186.633 38.392C186.1 37.8373 185.833 37.176 185.833 36.408C185.833 35.64 186.1 34.9893 186.633 34.456C187.188 33.9227 187.849 33.656 188.617 33.656C189.385 33.656 190.036 33.9227 190.569 34.456C191.102 34.9893 191.369 35.64 191.369 36.408C191.369 37.176 191.102 37.8373 190.569 38.392C190.036 38.9253 189.385 39.192 188.617 39.192Z" fill="white"/>
<path d="M84.6634 16.088H89.6874L98.9034 31.448H99.1594L98.9034 27.032V16.088H103.191V39H98.6474L88.9194 22.776H88.6634L88.9194 27.192V39H84.6634V16.088Z" fill="#F2994A"/>
<path d="M8 54C37.5118 47.2084 107.228 37.7001 150 54" stroke="#F6B50E" stroke-width="3" stroke-linecap="round"/>
</svg>
