<svg width="54" height="54" viewBox="0 0 54 54" fill="none" xmlns="http://www.w3.org/2000/svg">
<path fill-rule="evenodd" clip-rule="evenodd" d="M7.93791 17.3135C6.35905 18.3003 5.3999 20.0308 5.3999 21.8927V43.1997C5.3999 46.1821 7.81756 48.5997 10.7999 48.5997H43.1999C46.1822 48.5997 48.5999 46.1821 48.5999 43.1997V21.8927C48.5999 20.0308 47.6408 18.3003 46.0619 17.3135L29.8619 7.18849C28.1108 6.09407 25.889 6.09407 24.1379 7.18848L7.93791 17.3135ZM14.9976 23.8535C13.7569 23.0263 12.0805 23.3616 11.2534 24.6023C10.4262 25.843 10.7615 27.5194 12.0022 28.3465L25.5022 37.3465C26.4091 37.9512 27.5907 37.9512 28.4976 37.3465L41.9976 28.3465C43.2383 27.5194 43.5736 25.843 42.7464 24.6023C41.9193 23.3616 40.2429 23.0263 39.0022 23.8535L26.9999 31.855L14.9976 23.8535Z" fill="#424242"/>
</svg>
