<svg width="17" height="16" viewBox="0 0 17 16" fill="none" xmlns="http://www.w3.org/2000/svg">
<g id="Icon/pause">
<path id="Icon" fill-rule="evenodd" clip-rule="evenodd" d="M14.9 8.0001C14.9 11.5347 12.0346 14.4001 8.49998 14.4001C4.96535 14.4001 2.09998 11.5347 2.09998 8.0001C2.09998 4.46548 4.96535 1.6001 8.49998 1.6001C12.0346 1.6001 14.9 4.46548 14.9 8.0001ZM6.09998 6.4001C6.09998 5.95827 6.45815 5.6001 6.89998 5.6001C7.3418 5.6001 7.69998 5.95827 7.69998 6.4001V9.6001C7.69998 10.0419 7.3418 10.4001 6.89998 10.4001C6.45815 10.4001 6.09998 10.0419 6.09998 9.6001V6.4001ZM10.1 5.6001C9.65815 5.6001 9.29998 5.95827 9.29998 6.4001V9.6001C9.29998 10.0419 9.65815 10.4001 10.1 10.4001C10.5418 10.4001 10.9 10.0419 10.9 9.6001V6.4001C10.9 5.95827 10.5418 5.6001 10.1 5.6001Z" fill="white"/>
</g>
</svg>
