<svg width="16" height="16" viewBox="0 0 16 16" fill="none" xmlns="http://www.w3.org/2000/svg">
<g id="Icon/plus-circle">
<path id="Icon" fill-rule="evenodd" clip-rule="evenodd" d="M7.99998 14.3996C11.5346 14.3996 14.4 11.5342 14.4 7.99961C14.4 4.46499 11.5346 1.59961 7.99998 1.59961C4.46535 1.59961 1.59998 4.46499 1.59998 7.99961C1.59998 11.5342 4.46535 14.3996 7.99998 14.3996ZM8.79998 5.59961C8.79998 5.15778 8.4418 4.79961 7.99998 4.79961C7.55815 4.79961 7.19998 5.15778 7.19998 5.59961V7.19961H5.59998C5.15815 7.19961 4.79998 7.55778 4.79998 7.99961C4.79998 8.44144 5.15815 8.79961 5.59998 8.79961H7.19998V10.3996C7.19998 10.8414 7.55815 11.1996 7.99998 11.1996C8.4418 11.1996 8.79998 10.8414 8.79998 10.3996V8.79961H10.4C10.8418 8.79961 11.2 8.44144 11.2 7.99961C11.2 7.55778 10.8418 7.19961 10.4 7.19961H8.79998V5.59961Z" fill="white"/>
</g>
</svg>
